<svg xmlns="http://www.w3.org/2000/svg" version="1.1" xmlns:xlink="http://www.w3.org/1999/xlink" xmlns:svgjs="http://svgjs.dev/svgjs" width="100%" height="100%" viewBox="0 0 1000 600"><rect width="1000" height="600" x="0" y="0" fill="#5795c5"/><g><circle r="166.66666666666666" cx="387.24672953287757" cy="409.4689236359919" fill="#ffffff" transform="matrix(0.5666879881792427,0,0,0.5666879881792428,0,67.95892699870831)"/><path d="M342.2918940840221 472.5368530754204L417.8112332014012 344.45037921514904L344.24257812026434 345.51438868946303Q342.4692289964077 344.982383952306 341.4812201988305 343.9183744779921Q340.49321140125323 342.8543650036781 340.23987581213083 341.5116863813295Q339.9612066640962 340.16900775898097 340.49321140125323 338.9276633722813Q341.0252161384102 337.6863189855817 342.2918940840221 337.1543142484247L342.2918940840221 337.1543142484247Q342.2918940840221 336.97697933603905 345.93992656738425 336.6983101880044Q349.5879590507464 336.4449745988821 355.7186803075078 336.16630545084746Q361.87473512318144 335.9129698617251 369.626804150326 335.73563494933944Q377.3788731774706 335.55830003695377 385.4856120293865 335.27963088891914Q393.5923508813024 335.0262952997968 401.4964212619205 334.9249610641478Q409.4258252014507 334.8236268284989 415.65788069386105 334.7476261517622Q421.91526974518365 334.6462919161132 425.91797205331716 334.57029123937656Q429.9206743614506 334.46895700372755 430.27534418622196 334.46895700372755L430.27534418622196 334.46895700372755L430.9846838357646 342.8543650036781L354.40133524407145 474.66487202404835L431.3393536605359 474.66487202404835Q432.93536787200685 475.374211673591 433.74604175719844 476.97022588506195Q434.55671564239003 478.59157365544513 434.2780464943554 480.288922102565Q434.024710905233 481.96093699077267 432.8593671952701 483.22761493638455Q431.69402348530724 484.46895932308416 429.5660045366793 484.46895932308416L429.5660045366793 484.46895932308416L347.2572716308205 484.2916244106985Q345.3065875945783 484.2916244106985 344.31857879700107 483.02494646508666Q343.355903558336 481.783602078387 342.8998994979158 480.0102529545304Q342.4692289964077 478.23690383067384 342.36789476075876 476.1848855587826Q342.2918940840221 474.1328672868914 342.2918940840221 472.5368530754204L342.2918940840221 472.5368530754204Z " fill="#5795c5" transform="matrix(0.5666879881792427,0,0,0.5666879881792428,0,67.95892699870831)"/><path d="M639.3238503850845 469.02293661834716L712.3583397052466 345.15095473215473L641.2103501092215 346.17995458168406Q639.495350360006 345.6654546569194 638.5398504997289 344.6364548073901Q637.5843506394516 343.60745495786085 637.3393506752781 342.3089551477405Q637.069850714687 341.0104553376202 637.5843506394516 339.8099555131694Q638.0988505642164 338.6094556887186 639.3238503850845 338.0949557639539L639.3238503850845 338.0949557639539Q639.3238503850845 337.9234557890324 642.851849869185 337.6539558284414Q646.3798493532853 337.40895586426774 652.3088484862875 337.1394559036767Q658.2623476157069 336.8944559395031 665.7593465194203 336.72295596458156Q673.2563454231337 336.55145598966 681.0963442766902 336.28195602906897Q688.9363431302467 336.0369560648954 696.5803420124643 335.9389560792259Q704.2488408910991 335.84095609355643 710.2758400097707 335.76745610430436Q716.3273391248596 335.66945611863486 720.1983385588031 335.5959561293828Q724.0693379927467 335.49795614371334 724.4123379425897 335.49795614371334L724.4123379425897 335.49795614371334L725.0983378422759 343.60745495786085L651.0348486725844 471.08093631740576L725.441337792119 471.08093631740576Q726.9848375664129 471.76693621709194 727.7688374517686 473.3104359913859Q728.5528373371243 474.8784357620972 728.2833373765333 476.51993552206056Q728.0383374123595 478.1369352856066 726.9113375771609 479.3619351064748Q725.7843377419621 480.56243493092563 723.7263380429035 480.56243493092563L723.7263380429035 480.56243493092563L644.1258496828879 480.39093495600406Q642.2393499587508 480.39093495600406 641.2838500984736 479.16593513513584Q640.3528502346138 477.96543531068505 639.9118502991013 476.2504355614696Q639.495350360006 474.5354358122541 639.3973503743366 472.55093610244757Q639.3238503850845 470.56643639264115 639.3238503850845 469.02293661834716L639.3238503850845 469.02293661834716ZM728.7243373120458 435.9479414549058L728.7243373120458 435.9479414549058Q727.523837487595 436.97694130443506 724.5103379282592 436.70744134384404Q721.472338372506 436.4624413796704 718.9978387343523 435.4334415301411Q716.4988390997811 434.3799416841945 715.616839228756 432.5914419457269Q714.7593393541483 430.778442210842 717.6993389242319 428.35294256552294L717.6993389242319 428.35294256552294Q718.8998387486828 427.3239427159936 720.3698385337246 426.90744277689845Q721.8398383187665 426.4664428413859 723.2853381073909 426.0254429058734Q724.7553378924327 425.60894296677816 725.7108377527101 424.7514430921704Q726.6418376165699 423.86944322114533 726.8133375914914 421.9829434970083L726.8133375914914 421.9829434970083Q726.9848375664129 414.24094462912126 728.1118374016118 406.1314458149738Q729.2388372368104 398.04644699724366 732.3258367853983 391.676447928729Q735.4373363304035 385.28194886379697 741.2193354849014 381.5089494155229Q746.976834642982 377.71144997083155 756.4583332565019 378.56894984543925L756.4583332565019 378.56894984543925Q759.8883327549328 378.56894984543925 764.2003321243889 380.21044960540263Q768.512331493845 381.851949365366 772.4813309134579 384.5224489748587Q776.4258303366535 387.19294858435137 779.3658299067372 390.89244804337335Q782.3058294768209 394.5919475023953 782.991829376507 398.90394687185136L782.991829376507 398.90394687185136Q784.1923292009578 400.61894662106687 781.5953295807174 403.21594624130745Q779.0228299568942 405.78844586513065 774.3678306375949 408.973445399388Q769.7128313182958 412.1584449336453 763.8573321745457 415.4414444535721Q758.0018330307958 418.72444397349886 752.5873338225583 421.63994354716516Q747.1483346179035 424.5799431172489 743.007835223369 426.809442791229Q738.8918358252519 429.0389424652091 737.6668360043836 429.9209423362342L737.6668360043836 429.9209423362342Q738.7203358503303 436.63394135459197 739.9208356747811 444.0329402726359Q741.1213354992319 451.4319391906798 743.3508351732121 457.65493828069026Q745.6048348436095 463.8534373742834 748.9613343527885 467.89593678314844Q752.3178338619673 471.9384361920135 757.4873331060311 471.9384361920135L757.4873331060311 471.9384361920135Q765.0578319989966 472.4529361167782 770.4968312036515 469.70893651803334Q775.9113304118889 466.94043692287124 779.5373298816587 462.45693757849364Q783.1633293514286 457.9979382305334 785.3193290361567 452.656939011548Q787.4508287244673 447.3159397925627 788.577828559666 442.48944049834193Q789.7048283948648 437.66294120412124 790.12132833396 434.3064416949424Q790.5623282694726 430.9499421857635 790.9053282193156 430.6069422359204L790.9053282193156 430.6069422359204Q792.7918279434526 429.5534423899738 795.2173275887717 430.508942250251Q797.6183272376734 431.4644421105282 797.9613271875164 435.6049415050627L797.9613271875164 435.6049415050627Q798.132827162438 442.3179405234204 795.0458276138502 450.9174392659152Q791.9343280688449 459.5414380048273 786.5198288606075 466.7689369479497Q781.0808296559527 474.02093588748943 773.5838307522392 478.4064352461976Q766.1113318449433 482.79193460490575 757.6588330809527 481.4199348055334L757.6588330809527 481.4199348055334Q748.863334367119 481.2484348306118 743.7183351194726 476.3239355507216Q738.5488358754087 471.42393626724885 735.535336316073 464.4414372883001Q732.4973367603199 457.48343830576874 731.1253369609475 449.7169394414644Q729.7533371615751 441.9749405735773 728.7243373120458 435.9479414549058ZM737.4953360294621 419.5819438481066L773.8533307128303 398.90394687185136Q768.3408315189233 391.3334479788859 762.6568323500949 389.25094828340997Q756.9728331812664 387.19294858435137 750.9458340625949 388.0504484589591L750.9458340625949 388.0504484589591Q747.319834592825 388.5649483837238 744.5758349940803 391.406947968138Q741.8073353989182 394.24894755255224 740.0923356497027 398.6344469112604Q738.3773359004872 403.04444626638593 737.6668360043836 408.45894547462336Q736.9808361046975 413.89794467927817 737.4953360294621 419.5819438481066L737.4953360294621 419.5819438481066ZM803.3023264065018 480.047935006161L803.1308264315803 379.25494974512543Q803.3023264065018 377.53994999591 804.52732622737 376.5109501463807Q805.7278260518208 375.4819502968514 807.2713258261148 375.21245033626036Q808.8148256004088 374.9674503720868 810.38282537112 375.5554502861035Q811.926325145414 376.16795019653756 812.9553249949432 377.3684500209884L812.9553249949432 377.3684500209884L812.4408250701786 446.28693994303336Q815.7238245901053 433.8654417594298 818.394324199598 421.73794353283466Q821.0648238090907 409.5859453098221 825.0093232322863 399.68794675720704Q828.9783226518994 389.76544820817463 835.0053217705708 383.3219491504079Q841.0323208892423 376.8539500962238 851.028319427527 375.99645022161604L851.028319427527 375.99645022161604Q856.3693186465123 375.4819502968514 860.3383180661252 379.18144975587336Q864.2828174893209 382.88094921489534 867.124817073735 389.25094828340997Q869.9668166581494 395.6209473519246 871.8778163787036 404.1469461051673Q873.7643161028407 412.67294485840995 874.8913159380395 421.9094435077562Q876.0183157732382 431.1214421606851 876.5328156980029 440.406940802866Q877.0473156227674 449.7169394414644 877.2188155976891 457.65493828069026Q877.3903155726106 465.5684371234989 877.2923155869412 471.59543624217036Q877.2188155976891 477.62243536084196 877.0473156227674 480.39093495600406L877.0473156227674 480.39093495600406Q875.8223158018993 483.3064345296704 872.8088162425635 484.2619343899476Q869.7953166832277 485.2174342502248 867.394317034326 481.7629347553765L867.394317034326 481.7629347553765Q867.2228170594045 478.47993523544966 867.2228170594045 470.46843640697165Q867.2228170594045 462.45693757849364 866.9533170988135 452.1424390867834Q866.7083171346399 441.80344059865575 865.9243172492843 430.508942250251Q865.164817360346 419.23894389826347 863.351817625461 409.6594452990742Q861.5388178905761 400.1044466963022 858.3538183563187 393.6364476421181Q855.1688188220614 387.19294858435137 850.1708195529192 386.3354487097436L850.1708195529192 386.3354487097436Q845.8588201834631 385.64944881005744 841.816320774598 390.9659480326254Q837.773821365733 396.3069472516108 834.0498219102936 405.1024459654445Q830.3503224512717 413.89794467927817 827.1653229170144 424.922943067092Q823.980323382757 435.9479414549058 821.4813237481859 446.6299398928765Q818.9823241136148 457.31193833084717 817.2673243643993 466.25443702318506Q815.5523246151838 475.2214357119403 815.0133246940019 480.047935006161L815.0133246940019 480.047935006161Q814.4988247692372 481.4199348055334 812.9553249949432 482.2774346801411Q811.4118252206493 483.13493455474884 809.5988254857643 483.2329345404183Q807.7858257508794 483.3064345296704 805.9728260159945 482.62043462998423Q804.1598262811095 481.93443473029805 803.3023264065018 480.047935006161L803.3023264065018 480.047935006161ZM1002.6097972617581 478.9944351602143L970.4168019693418 340.32445543793403Q970.4168019693418 337.75195581411083 971.3478018332016 336.62495597891206Q972.3033016934787 335.49795614371334 973.7733014785206 335.2529561795397Q975.2433012635624 334.9834562189487 976.8603010271084 335.32645616879176Q978.5018007870719 335.66945611863486 979.8738005864443 336.2084560398169L979.8738005864443 336.2084560398169L1010.0332961762194 468.85143664342564Q1010.7192960759055 468.1409367473221 1012.8752957606335 462.2854376035721Q1015.0312954453616 456.4299384598221 1017.8732950297758 447.56093975673633Q1020.71529461419 438.6919410536505 1024.1452941126213 427.8384426407583Q1027.5997936074696 416.98494422786604 1030.9562931166483 406.0579458257217Q1034.3127926258271 395.10644742716 1037.2527921959108 385.28194886379697Q1040.168291769577 375.4819502968514 1042.2507914650532 368.5729513071547L1042.2507914650532 368.5729513071547Q1043.4512912895038 366.0004516833315 1045.264291024389 364.7019518732112Q1047.0772907592736 363.4034520630909 1049.1352904583323 363.4034520630909Q1051.193290157391 363.4034520630909 1053.1042898779456 364.45695190903757Q1054.9907896020823 365.4859517585669 1056.1912894265333 367.54395145762544L1056.1912894265333 367.54395145762544L1090.295284439504 467.11193689779276L1116.142780659823 337.9234557890324Q1117.0002805344307 336.3799560147384 1118.4702803194727 335.4244561544612Q1119.9402801045144 334.46895629418407 1121.3122799038865 334.46895629418407Q1122.684279703259 334.46895629418407 1123.9827795133792 335.76745610430436Q1125.2812793234998 337.0659559144246 1125.9672792231859 340.32445543793403L1125.9672792231859 340.32445543793403L1096.8612834793576 478.1369352856066Q1096.5182835295145 478.8229351852928 1095.219783719394 479.9499350204915Q1093.9212839092738 481.07693485569024 1092.1082841743887 481.4199348055334Q1090.295284439504 481.7629347553765 1088.2372847404454 480.7339349058472Q1086.1792850413867 479.7049350563179 1084.6112852706756 476.078935586548L1084.6112852706756 476.078935586548L1049.1352904583323 378.22594989559616L1017.0892951444202 479.53343508139636Q1015.5457953701263 481.5914347804549 1013.1202957248072 482.03243471596744Q1010.7192960759055 482.44893465506266 1008.4897964019253 481.93443473029805Q1006.2357967315279 481.4199348055334 1004.5207969823125 480.4644349452562Q1002.8057972330969 479.53343508139636 1002.6097972617581 478.9944351602143L1002.6097972617581 478.9944351602143ZM1130.2792785926422 435.9479414549058L1130.2792785926422 435.9479414549058Q1129.0542787717736 436.97694130443506 1126.0407792124379 436.70744134384404Q1123.0272796531021 436.4624413796704 1120.528280018531 435.4334415301411Q1118.0292803839598 434.3799416841945 1117.1717805093522 432.5914419457269Q1116.3142806347446 430.778442210842 1119.2542802048283 428.35294256552294L1119.2542802048283 428.35294256552294Q1120.454780029279 427.3239427159936 1121.924779814321 426.90744277689845Q1123.3702796029452 426.4664428413859 1124.8402793879873 426.0254429058734Q1126.310279173029 425.60894296677816 1127.265779033306 424.7514430921704Q1128.196778897166 423.86944322114533 1128.3682788720876 421.9829434970083L1128.3682788720876 421.9829434970083Q1128.539778847009 414.24094462912126 1129.6667786822077 406.1314458149738Q1130.7937785174067 398.04644699724366 1133.8807780659945 391.676447928729Q1136.9922776109997 385.28194886379697 1142.7497767690802 381.5089494155229Q1148.5317759235782 377.71144997083155 1158.013274537098 378.56894984543925L1158.013274537098 378.56894984543925Q1161.4432740355292 378.56894984543925 1165.755273404985 380.21044960540263Q1170.0672727744409 381.851949365366 1174.0362721940542 384.5224489748587Q1177.9807716172495 387.19294858435137 1180.9207711873332 390.89244804337335Q1183.8362707609995 394.5919475023953 1184.522270660686 398.90394687185136L1184.522270660686 398.90394687185136Q1185.747270481554 400.61894662106687 1183.1502708613134 403.21594624130745Q1180.5777712374902 405.78844586513065 1175.9227719181908 408.973445399388Q1171.267772598892 412.1584449336453 1165.412273455142 415.4414444535721Q1159.556774311392 418.72444397349886 1154.117775106737 421.63994354716516Q1148.7032758984997 424.5799431172489 1144.5627765039653 426.809442791229Q1140.4222771094305 429.0389424652091 1139.22177728498 429.9209423362342L1139.22177728498 429.9209423362342Q1140.250777134509 436.63394135459197 1141.4757769553771 444.0329402726359Q1142.6762767798282 451.4319391906798 1144.9057764538084 457.65493828069026Q1147.159776124206 463.8534373742834 1150.5162756333848 467.89593678314844Q1153.8727751425636 471.9384361920135 1159.0422743866275 471.9384361920135L1159.0422743866275 471.9384361920135Q1166.6127732795926 472.4529361167782 1172.0517724842475 469.70893651803334Q1177.466271692485 466.94043692287124 1181.0922711622547 462.45693757849364Q1184.718270632025 457.9979382305334 1186.8497703203357 452.656939011548Q1189.0057700050634 447.3159397925627 1190.1327698402624 442.48944049834193Q1191.259769675461 437.66294120412124 1191.676269614556 434.3064416949424Q1192.1172695500686 430.9499421857635 1192.4602694999116 430.6069422359204L1192.4602694999116 430.6069422359204Q1194.3467692240488 429.5534423899738 1196.772268869368 430.508942250251Q1199.1732685182697 431.4644421105282 1199.5162684681127 435.6049415050627L1199.5162684681127 435.6049415050627Q1199.6877684430342 442.3179405234204 1196.6007688944464 450.9174392659152Q1193.4892693494412 459.5414380048273 1188.0747701412038 466.7689369479497Q1182.6357709365489 474.02093588748943 1175.1387720328353 478.4064352461976Q1167.6417731291222 482.79193460490575 1159.213774361549 481.4199348055334L1159.213774361549 481.4199348055334Q1150.4182756477153 481.2484348306118 1145.2487764036514 476.3239355507216Q1140.0792771595875 471.42393626724885 1137.0657776002517 464.4414372883001Q1134.052278040916 457.48343830576874 1132.6802782415434 449.7169394414644Q1131.3082784421713 441.9749405735773 1130.2792785926422 435.9479414549058ZM1139.0502773100584 419.5819438481066L1175.4082719934263 398.90394687185136Q1169.8957727995198 391.3334479788859 1164.211773630691 389.25094828340997Q1158.5277744618625 387.19294858435137 1152.500775343191 388.0504484589591L1152.500775343191 388.0504484589591Q1148.8747758734212 388.5649483837238 1146.1307762746765 391.406947968138Q1143.3622766795143 394.24894755255224 1141.647276930299 398.6344469112604Q1139.907777184666 403.04444626638593 1139.22177728498 408.45894547462336Q1138.5357773852938 413.89794467927817 1139.0502773100584 419.5819438481066L1139.0502773100584 419.5819438481066ZM1207.7972672571818 479.8764350312394L1207.4542673073383 338.26645573887544Q1208.483267156868 337.58045583918926 1209.6102669920665 336.79645595383363Q1210.712766830848 336.0369560648954 1211.9132666552987 335.76745610430436Q1213.1382664761672 335.49795614371334 1214.0692663400268 336.0369560648954Q1215.024766200304 336.55145598966 1215.7107660999905 338.26645573887544L1215.7107660999905 338.26645573887544L1216.7397659495196 480.39093495600406Q1215.882266074912 482.10593470521957 1214.5102662755394 482.7184346156536Q1213.1382664761672 483.3064345296704 1211.7417666803772 483.06143456549677Q1210.369766881005 482.79193460490575 1209.242767045806 481.93443473029805Q1208.1402672070249 481.07693485569024 1207.7972672571818 479.8764350312394L1207.7972672571818 479.8764350312394ZM1229.6757640578876 479.8764350312394L1229.3327641080446 338.26645573887544Q1230.361763957574 337.58045583918926 1231.4642637963552 336.79645595383363Q1232.5912636315543 336.0369560648954 1233.791763456005 335.76745610430436Q1235.016763276873 335.49795614371334 1235.947763140733 336.0369560648954Q1236.9032630010101 336.55145598966 1237.5892629006962 338.26645573887544L1237.5892629006962 338.26645573887544L1238.6182627502258 480.39093495600406Q1237.7607628756177 482.10593470521957 1236.3887630762456 482.7184346156536Q1235.016763276873 483.3064345296704 1233.6202634810834 483.06143456549677Q1232.2482636817108 482.79193460490575 1231.1212638465122 481.93443473029805Q1230.018764007731 481.07693485569024 1229.6757640578876 479.8764350312394L1229.6757640578876 479.8764350312394ZM1248.61426128851 480.047935006161L1248.4427613135886 379.25494974512543Q1248.61426128851 377.53994999591 1249.8147611129612 376.5109501463807Q1251.0397609338293 375.4819502968514 1252.5832607081234 375.21245033626036Q1254.126760482417 374.9674503720868 1255.6702602567111 375.5554502861035Q1257.2382600274223 376.16795019653756 1258.2672598769518 377.3684500209884L1258.2672598769518 377.3684500209884L1257.7527599521868 446.28693994303336Q1261.0112594756965 433.8654417594298 1263.6817590851892 421.73794353283466Q1266.352258694682 409.5859453098221 1270.3212581142948 399.68794675720704Q1274.2902575339076 389.76544820817463 1280.317256652579 383.3219491504079Q1286.344255771251 376.8539500962238 1296.3402543095353 375.99645022161604L1296.3402543095353 375.99645022161604Q1301.6812535285208 375.4819502968514 1305.6257529517165 379.18144975587336Q1309.5947523713294 382.88094921489534 1312.4367519557436 389.25094828340997Q1315.2787515401578 395.6209473519246 1317.189751260712 404.1469461051673Q1319.0762509848491 412.67294485840995 1320.2032508200477 421.9094435077562Q1321.3057506588293 431.1214421606851 1321.8202505835939 440.406940802866Q1322.3347505083584 449.7169394414644 1322.5307504796974 457.65493828069026Q1322.702250454619 465.5684371234989 1322.6042504689494 471.59543624217036Q1322.5307504796974 477.62243536084196 1322.3347505083584 480.39093495600406L1322.3347505083584 480.39093495600406Q1321.1342506839078 483.3064345296704 1318.120751124572 484.2619343899476Q1315.1072515652363 485.2174342502248 1312.7062519163346 481.7629347553765L1312.7062519163346 481.7629347553765Q1312.534751941413 478.47993523544966 1312.534751941413 470.46843640697165Q1312.534751941413 462.45693757849364 1312.265251980822 452.1424390867834Q1312.020252016648 441.80344059865575 1311.2362521312925 430.508942250251Q1310.452252245937 419.23894389826347 1308.6392525110518 409.6594452990742Q1306.8507527725847 400.1044466963022 1303.6657532383274 393.6364476421181Q1300.4807537040697 387.19294858435137 1295.4827544349273 386.3354487097436L1295.4827544349273 386.3354487097436Q1291.1707550654714 385.64944881005744 1287.1282556566066 390.9659480326254Q1283.0612562513238 396.3069472516108 1279.361756792302 405.1024459654445Q1275.6622573332802 413.89794467927817 1272.477257799023 424.922943067092Q1269.2922582647652 435.9479414549058 1266.7932586301945 446.6299398928765Q1264.2942589956233 457.31193833084717 1262.5792592464077 466.25443702318506Q1260.839759500775 475.2214357119403 1260.3252595760105 480.047935006161L1260.3252595760105 480.047935006161Q1259.8107596512455 481.4199348055334 1258.2672598769518 482.2774346801411Q1256.7237601026577 483.13493455474884 1254.910760367773 483.2329345404183Q1253.097760632888 483.3064345296704 1251.2847608980028 482.62043462998423Q1249.4717611631181 481.93443473029805 1248.61426128851 480.047935006161L1248.61426128851 480.047935006161ZM1335.61374856657 435.9479414549058L1335.61374856657 435.9479414549058Q1334.4132487421189 436.97694130443506 1331.3997491827831 436.70744134384404Q1328.3862496234474 436.4624413796704 1325.8872499888762 435.4334415301411Q1323.3882503543055 434.3799416841945 1322.5307504796974 432.5914419457269Q1321.6487506086723 430.778442210842 1324.588750178756 428.35294256552294L1324.588750178756 428.35294256552294Q1325.7892500032067 427.3239427159936 1327.2592497882488 426.90744277689845Q1328.7292495732904 426.4664428413859 1330.174749361915 426.0254429058734Q1331.644749146957 425.60894296677816 1332.6002490072342 424.7514430921704Q1333.5557488675113 423.86944322114533 1333.7272488424328 421.9829434970083L1333.7272488424328 421.9829434970083Q1333.8987488173543 414.24094462912126 1335.0012486561359 406.1314458149738Q1336.1282484913345 398.04644699724366 1339.2397480363397 391.676447928729Q1342.3267475849275 385.28194886379697 1348.1087467394254 381.5089494155229Q1353.866245897506 377.71144997083155 1363.3477445110261 378.56894984543925L1363.3477445110261 378.56894984543925Q1366.802244005874 378.56894984543925 1371.0897433789128 380.21044960540263Q1375.401742748369 381.851949365366 1379.370742167982 384.5224489748587Q1383.3397415875947 387.19294858435137 1386.2552411612614 390.89244804337335Q1389.1952407313447 394.5919475023953 1389.8812406310312 398.90394687185136L1389.8812406310312 398.90394687185136Q1391.0817404554818 400.61894662106687 1388.4847408352412 403.21594624130745Q1385.912241211418 405.78844586513065 1381.257241892119 408.973445399388Q1376.6022425728197 412.1584449336453 1370.7467434290697 415.4414444535721Q1364.8912442853198 418.72444397349886 1359.4767450770823 421.63994354716516Q1354.0377458724279 424.5799431172489 1349.897246477893 426.809442791229Q1345.7812470797758 429.0389424652091 1344.5807472553252 429.9209423362342L1344.5807472553252 429.9209423362342Q1345.6097471048543 436.63394135459197 1346.8102469293053 444.0329402726359Q1348.010746753756 451.4319391906798 1350.2647464241536 457.65493828069026Q1352.4942460981338 463.8534373742834 1355.8507456073125 467.89593678314844Q1359.2072451164913 471.9384361920135 1364.3767443605552 471.9384361920135L1364.3767443605552 471.9384361920135Q1371.9472432535208 472.4529361167782 1377.3862424581753 469.70893651803334Q1382.8007416664132 466.94043692287124 1386.4267411361825 462.45693757849364Q1390.0527406059527 457.9979382305334 1392.208740290681 452.656939011548Q1394.3647399754086 447.3159397925627 1395.4672398141902 442.48944049834193Q1396.5942396493888 437.66294120412124 1397.0352395849013 434.3064416949424Q1397.4517395239964 430.9499421857635 1397.7947394738399 430.6069422359204L1397.7947394738399 430.6069422359204Q1399.705739194394 429.5534423899738 1402.1067388432957 430.508942250251Q1404.5077384921974 431.4644421105282 1404.8507384420404 435.6049415050627L1404.8507384420404 435.6049415050627Q1405.022238416962 442.3179405234204 1401.9352388683742 450.9174392659152Q1398.823739323369 459.5414380048273 1393.4092401151315 466.7689369479497Q1387.9702409104766 474.02093588748943 1380.497742003181 478.4064352461976Q1373.0007430994674 482.79193460490575 1364.5482443354767 481.4199348055334L1364.5482443354767 481.4199348055334Q1355.7772456180605 481.2484348306118 1350.6077463739966 476.3239355507216Q1345.4382471299327 471.42393626724885 1342.424747570597 464.4414372883001Q1339.4112480112613 457.48343830576874 1338.0147482154716 449.7169394414644Q1336.642748416099 441.9749405735773 1335.61374856657 435.9479414549058ZM1344.3847472839861 419.5819438481066L1380.7427419673545 398.90394687185136Q1375.2302427734476 391.3334479788859 1369.5462436046191 389.25094828340997Q1363.8622444357907 387.19294858435137 1357.8352453171192 388.0504484589591L1357.8352453171192 388.0504484589591Q1354.209245847349 388.5649483837238 1351.4652462486042 391.406947968138Q1348.6967466534425 394.24894755255224 1346.9817469042268 398.6344469112604Q1345.2667471550112 403.04444626638593 1344.5807472553252 408.45894547462336Q1343.8702473592216 413.89794467927817 1344.3847472839861 419.5819438481066L1344.3847472839861 419.5819438481066ZM1411.7597374317374 469.5374365431118L1411.7597374317374 469.5374365431118Q1415.0182369552467 472.10993616693503 1419.7712362602151 472.2814361418566Q1424.4997355687665 472.4529361167782 1429.7427348020824 471.0074363281537Q1435.0102340318158 469.5374365431118 1440.4247332400532 466.6954369586976Q1445.8637324447077 463.8534373742834 1450.4207317783375 460.39893787943504Q1455.0022311083844 456.9444383845867 1458.3587306175637 453.0734389506432Q1461.7152301267424 449.2024395166997 1462.915729951193 445.6744400325993Q1464.1162297756441 442.1464405484989 1462.7442299762715 439.2064409784152Q1461.3722301768994 436.2909414047489 1456.5457308826785 434.551441659116L1456.5457308826785 434.551441659116Q1447.7502321688448 436.63394135459197 1438.9792334514286 437.8344411790428Q1430.183734737595 439.0349410034936 1423.2012357586464 437.8344411790428Q1416.2432367761148 436.63394135459197 1411.931237406659 432.15044201021436Q1407.6192380372026 427.66694266583676 1407.9622379870457 418.3569440272384L1407.9622379870457 418.3569440272384Q1408.4767379118102 409.41444533490056 1412.8622372705186 401.57444648134407Q1417.272236625644 393.7344476277876 1424.058735633254 388.2219484338807Q1430.8697346372815 382.70944923997376 1439.2242334156022 379.7694496698901Q1447.5787321939233 376.8539500962238 1456.2027309328355 377.3684500209884L1456.2027309328355 377.3684500209884Q1457.9177306820511 377.53994999591 1459.3877304670928 377.6379499815794Q1460.8577302521344 377.71144997083155 1462.0582300765855 378.22594989559616Q1463.2587299010365 378.7404498203608 1463.8712298114706 379.7694496698901Q1464.4592297254871 380.82294951583674 1464.2877297505656 382.88094921489534L1464.2877297505656 382.88094921489534Q1464.1162297756441 385.45344883871854 1462.4012300264285 387.02144860942985Q1460.6862302772129 388.5649483837238 1457.7462307071296 388.2219484338807L1457.7462307071296 388.2219484338807Q1447.5787321939233 386.1639487348221 1439.4937333761932 389.07944830848845Q1431.3842345620455 392.01944787857207 1426.0432353430601 397.262447111888Q1420.7022361240752 402.52994634162127 1418.472736450095 409.0714453850575Q1416.2432367761148 415.6129444284937 1417.786736550409 420.953943647479L1417.786736550409 420.953943647479Q1421.0452360739182 427.1524427410721 1426.3127353036516 428.7939425010355Q1431.5557345369675 430.43544226099885 1437.509233666387 429.9209423362342Q1443.438232799389 429.3819424150522 1449.661231889399 428.1079426013493Q1455.8597309829925 426.809442791229 1460.8577302521344 427.25044272674154Q1465.8557295212768 427.66694266583676 1469.1142290447865 431.0234421750156Q1472.3972285647133 434.3799416841945 1472.7402285145563 443.3469403729497L1472.7402285145563 443.3469403729497Q1472.5687285396348 449.03093954177814 1468.942729069865 454.27393877509405Q1465.3167296000952 459.5414380048273 1459.7307304169358 464.098437338457Q1454.1202312373593 468.6799366685041 1447.2357322440803 472.37943612752605Q1440.3512332508012 476.078935586548 1433.5402342467737 478.47993523544966Q1426.7292352427467 480.9054348807687 1420.8002361097447 481.7629347553765Q1414.8467369803252 482.62043462998423 1411.2452375069724 481.5914347804549L1411.2452375069724 481.5914347804549Q1407.2762380873596 478.1369352856066 1407.104738112438 474.78043577642774Q1406.9332381375166 471.42393626724885 1411.7597374317374 469.5374365431118ZM1483.079227002684 469.5374365431118L1483.079227002684 469.5374365431118Q1486.3377265261934 472.10993616693503 1491.0907258311618 472.2814361418566Q1495.8192251397131 472.4529361167782 1501.062224373029 471.0074363281537Q1506.3297236027624 469.5374365431118 1511.7442228109999 466.6954369586976Q1517.1832220156543 463.8534373742834 1521.7402213492842 460.39893787943504Q1526.297220682914 456.9444383845867 1529.6782201885103 453.0734389506432Q1533.034719697689 449.2024395166997 1534.2352195221401 445.6744400325993Q1535.4357193465908 442.1464405484989 1534.0637195472186 439.2064409784152Q1532.691719747846 436.2909414047489 1527.8652204536252 434.551441659116L1527.8652204536252 434.551441659116Q1519.0697217397915 436.63394135459197 1510.2987230223753 437.8344411790428Q1501.5032243085416 439.0349410034936 1494.520725329593 437.8344411790428Q1487.538226350644 436.63394135459197 1483.2507269776052 432.15044201021436Q1478.9387276081493 427.66694266583676 1479.2817275579923 418.3569440272384L1479.2817275579923 418.3569440272384Q1479.7962274827569 409.41444533490056 1484.1817268414652 401.57444648134407Q1488.5917261965906 393.7344476277876 1495.3782252042006 388.2219484338807Q1502.1892242082276 382.70944923997376 1510.5437229865488 379.7694496698901Q1518.89822176487 376.8539500962238 1527.5222205037821 377.3684500209884L1527.5222205037821 377.3684500209884Q1529.2372202529978 377.53994999591 1530.7072200380394 377.6379499815794Q1532.1772198230815 377.71144997083155 1533.377719647532 378.22594989559616Q1534.5782194719832 378.7404498203608 1535.1907193824172 379.7694496698901Q1535.7787192964338 380.82294951583674 1535.6072193215123 382.88094921489534L1535.6072193215123 382.88094921489534Q1535.4357193465908 385.45344883871854 1533.7207195973751 387.02144860942985Q1532.00571984816 388.5649483837238 1529.0657202780762 388.2219484338807L1529.0657202780762 388.2219484338807Q1518.89822176487 386.1639487348221 1510.8132229471398 389.07944830848845Q1502.7037241329926 392.01944787857207 1497.3627249140072 397.262447111888Q1492.0217256950218 402.52994634162127 1489.7922260210416 409.0714453850575Q1487.538226350644 415.6129444284937 1489.1062261213551 420.953943647479L1489.1062261213551 420.953943647479Q1492.3647256448648 427.1524427410721 1497.6322248745983 428.7939425010355Q1502.8752241079137 430.43544226099885 1508.8287232373332 429.9209423362342Q1514.7577223703356 429.3819424150522 1520.980721460346 428.1079426013493Q1527.179220553939 426.809442791229 1532.1772198230815 427.25044272674154Q1537.1507190958064 427.66694266583676 1540.4337186157327 431.0234421750156Q1543.71671813566 434.3799416841945 1544.059718085503 443.3469403729497L1544.059718085503 443.3469403729497Q1543.8882181105814 449.03093954177814 1540.2622186408116 454.27393877509405Q1536.6362191710414 459.5414380048273 1531.0502199878824 464.098437338457Q1525.4397208083064 468.6799366685041 1518.555221815027 472.37943612752605Q1511.6707228217479 476.078935586548 1504.8597238177204 478.47993523544966Q1498.0487248136933 480.9054348807687 1492.1197256806913 481.7629347553765Q1486.1662265512718 482.62043462998423 1482.564727077919 481.5914347804549L1482.564727077919 481.5914347804549Q1478.5957276583063 478.1369352856066 1478.4242276833847 474.78043577642774Q1478.2527277084632 471.42393626724885 1483.079227002684 469.5374365431118Z " fill="#ffffff" transform="matrix(0.5666879881792427,0,0,0.5666879881792428,0,67.95892699870831)"/></g></svg>